# xmcd CD database file
#
# Track frame offsets:
#	150
#	15082
#	45025
#	68550
#	92165
#	106622
#	129129
#	147732
#	172047
#	181297
#	212442
#	228322
#	249235
#	272820
#
# Disc length: 3880 seconds
#
# Revision: 0
# Processed by: cddbd v1.5.2PL0 Copyright (c) Steve Scherf et al.
# Submitted via: CDex 1.51
#
DISCID=a80f260e
DTITLE=Rowan University Lab Band - Tribute to Buddy Rich
DYEAR=1997
DGENRE=Jazz
TTITLE0=Blues in Hoss Flat
TTITLE1=Badda Bing Badda Bang
TTITLE2=Basically Blues
TTITLE3=Maiden Voyage
TTITLE4=Sister Sadie
TTITLE5=Blue Train
TTITLE6=Sugar Buzz
TTITLE7=Big Swing Face
TTITLE8=Dean Witten remembers Buddy
TTITLE9=Afro Blue
TTITLE10=In Her Family
TTITLE11=Love For Sale
TTITLE12=Shiny Stockings
TTITLE13=Lemon Drop
EXTD=YEAR: 1997
EXTT0=
EXTT1=
EXTT2=
EXTT3=
EXTT4=
EXTT5=
EXTT6=
EXTT7=
EXTT8=
EXTT9=
EXTT10=
EXTT11=
EXTT12=
EXTT13=
PLAYORDER=
